<svg width="20" height="20" viewBox="0 0 20 20" fill="none" xmlns="http://www.w3.org/2000/svg">
<path d="M19.7214 10.7563C19.7404 10.5082 19.75 10.2575 19.75 10.0046C19.75 8.4804 19.4003 7.03792 18.7767 5.75299C17.5396 6.92733 16.0671 7.8561 14.4374 8.46117C14.4789 8.97016 14.5 9.48489 14.5 10.0046C14.5 11.1058 14.4051 12.1848 14.2229 13.2339C16.2163 12.7323 18.0717 11.8838 19.7214 10.7563Z" fill="#1A54C9"/>
<path d="M12.6343 13.5547C12.874 12.409 13 11.2215 13 10.0046C13 9.63618 12.9885 9.27049 12.9657 8.90785C12.0141 9.13455 11.021 9.25457 10 9.25457C8.97896 9.25457 7.98594 9.13455 7.0343 8.90784C7.01155 9.27049 7 9.63618 7 10.0046C7 11.2215 7.12601 12.409 7.3657 13.5547C8.22458 13.6863 9.10432 13.7546 10 13.7546C10.8957 13.7546 11.7754 13.6863 12.6343 13.5547Z" fill="#1A54C9"/>
<path d="M7.77224 15.1236C8.50278 15.2101 9.2462 15.2546 10 15.2546C10.7538 15.2546 11.4972 15.2101 12.2278 15.1236C11.714 16.7793 10.9575 18.3281 10 19.7286C9.04247 18.3281 8.28602 16.7793 7.77224 15.1236Z" fill="#1A54C9"/>
<path d="M5.77705 13.2339C5.59493 12.1848 5.5 11.1058 5.5 10.0046C5.5 9.48489 5.52114 8.97016 5.56261 8.46117C3.93286 7.8561 2.46039 6.92733 1.22333 5.75299C0.599734 7.03792 0.25 8.4804 0.25 10.0046C0.25 10.2575 0.259636 10.5082 0.278555 10.7563C1.92826 11.8838 3.78374 12.7323 5.77705 13.2339Z" fill="#1A54C9"/>
<path d="M19.3561 12.7571C18.3404 16.2151 15.4597 18.8752 11.8776 19.5739C12.744 18.1169 13.4185 16.5325 13.8664 14.8555C15.8263 14.4446 17.6736 13.7277 19.3561 12.7571Z" fill="#1A54C9"/>
<path d="M0.64395 12.7571C2.32642 13.7277 4.17372 14.4446 6.13356 14.8555C6.58146 16.5325 7.25602 18.1169 8.12242 19.5739C4.54027 18.8752 1.65964 16.2151 0.64395 12.7571Z" fill="#1A54C9"/>
<path d="M11.8776 0.435193C14.3991 0.927088 16.5731 2.39084 17.9937 4.42063C16.9351 5.48948 15.6637 6.34715 14.2483 6.9248C13.862 4.58746 13.0435 2.39596 11.8776 0.435193Z" fill="#1A54C9"/>
<path d="M10 0.280518C11.4287 2.37011 12.4097 4.79001 12.805 7.40208C11.9083 7.6322 10.9684 7.75457 10 7.75457C9.03156 7.75457 8.09169 7.6322 7.19503 7.40208C7.5903 4.79001 8.57133 2.37011 10 0.280518Z" fill="#1A54C9"/>
<path d="M8.12242 0.435191C6.95648 2.39596 6.13795 4.58746 5.75171 6.9248C4.33629 6.34715 3.06489 5.48948 2.00635 4.42063C3.42689 2.39084 5.60085 0.927086 8.12242 0.435191Z" fill="#1A54C9"/>
</svg>
