<svg width="22" height="22" viewBox="0 0 22 22" fill="none" xmlns="http://www.w3.org/2000/svg">
<path d="M20.75 8.00229V8.90838C20.75 9.73611 20.2955 10.497 19.5667 10.8894L13.0893 14.3773M1.25 8.00229V8.90838C1.25 9.73611 1.70448 10.497 2.43328 10.8894L8.91074 14.3773M17.75 16.8869L13.0893 14.3773M13.0893 14.3773L12.0667 13.8267C11.4008 13.4681 10.5992 13.4681 9.93328 13.8267L8.91074 14.3773M8.91074 14.3773L4.25 16.8869M20.75 18.5023C20.75 19.7449 19.7426 20.7523 18.5 20.7523H3.5C2.25736 20.7523 1.25 19.7449 1.25 18.5023L1.25 7.8462C1.25 7.01846 1.70448 6.25757 2.43328 5.86514L9.93328 1.82668C10.5992 1.46809 11.4008 1.46809 12.0667 1.82668L19.5667 5.86514C20.2955 6.25757 20.75 7.01847 20.75 7.8462V18.5023Z" stroke="#1A54C9" stroke-width="1.5" stroke-linecap="round" stroke-linejoin="round"/>
</svg>
