<svg width="22" height="22" viewBox="0 0 22 22" fill="none" xmlns="http://www.w3.org/2000/svg">
<path d="M1.25 5.76611C1.25 14.0504 7.96573 20.7661 16.25 20.7661H18.5C19.7426 20.7661 20.75 19.7588 20.75 18.5161V17.1445C20.75 16.6283 20.3987 16.1783 19.8979 16.0531L15.4747 14.9473C15.0355 14.8375 14.5734 15.0016 14.3018 15.3637L13.3316 16.6573C13.05 17.0328 12.563 17.1988 12.1223 17.0374C8.81539 15.826 6.19015 13.2007 4.97876 9.89377C4.81734 9.4531 4.98336 8.96609 5.3588 8.68451L6.65242 7.7143C7.01453 7.44271 7.17861 6.98057 7.06883 6.54144L5.96304 2.11826C5.83783 1.61745 5.38785 1.26611 4.87163 1.26611H3.5C2.25736 1.26611 1.25 2.27347 1.25 3.51611V5.76611Z" stroke="#1A54C9" stroke-width="1.5" stroke-linecap="round" stroke-linejoin="round"/>
</svg>
