<svg width="24" height="24" viewBox="0 0 24 24" fill="none" xmlns="http://www.w3.org/2000/svg">
<path d="M5.25 6.38184C5.25 4.10366 7.09683 2.25684 9.375 2.25684C11.6532 2.25684 13.5 4.10366 13.5 6.38184C13.5 8.66001 11.6532 10.5068 9.375 10.5068C7.09683 10.5068 5.25 8.66001 5.25 6.38184Z" fill="#1A54C9"/>
<path d="M2.25 19.1318C2.25 15.1968 5.43997 12.0068 9.375 12.0068C13.31 12.0068 16.5 15.1968 16.5 19.1318V19.1344C16.5 19.1742 16.4996 19.2142 16.499 19.2538C16.4946 19.5123 16.3574 19.7503 16.1359 19.8837C14.1607 21.073 11.8466 21.7568 9.375 21.7568C6.90343 21.7568 4.5893 21.073 2.61406 19.8837C2.39256 19.7503 2.25537 19.5123 2.25103 19.2538C2.25034 19.2132 2.25 19.1726 2.25 19.1318Z" fill="#1A54C9"/>
<path d="M18.75 7.50684C18.75 7.09262 18.4142 6.75684 18 6.75684C17.5858 6.75684 17.25 7.09262 17.25 7.50684V9.75684H15C14.5858 9.75684 14.25 10.0926 14.25 10.5068C14.25 10.9211 14.5858 11.2568 15 11.2568H17.25V13.5068C17.25 13.9211 17.5858 14.2568 18 14.2568C18.4142 14.2568 18.75 13.9211 18.75 13.5068V11.2568H21C21.4142 11.2568 21.75 10.921 21.75 10.5068C21.75 10.0926 21.4142 9.75684 21 9.75684H18.75V7.50684Z" fill="#1A54C9"/>
</svg>
